<mxfile host="app.diagrams.net" agent="Mozilla/5.0 (Windows NT 10.0; Win64; x64) AppleWebKit/537.36 (KHTML, like Gecko) Chrome/133.0.0.0 Safari/537.36" version="26.0.16">
  <diagram name="Page-1" id="AFl8BCYIfSVyRrqz87CR">
    <mxGraphModel>
      <root>
        <mxCell id="0" />
        <mxCell id="1" parent="0" />
        <mxCell id="2" value="Warehouse" style="whiteSpace=wrap;strokeWidth=2;" vertex="1" parent="1">
          <mxGeometry x="1645" y="8" width="243" height="228" as="geometry" />
        </mxCell>
        <mxCell id="3" value="e-Commerce System" style="whiteSpace=wrap;strokeWidth=2;" vertex="1" parent="1">
          <mxGeometry x="329" y="256" width="1920" height="198" as="geometry" />
        </mxCell>
        <mxCell id="4" value="User" style="whiteSpace=wrap;strokeWidth=2;" vertex="1" parent="1">
          <mxGeometry x="8" y="267" width="112" height="166" as="geometry" />
        </mxCell>
        <mxCell id="5" value="User" style="rounded=1;arcSize=20;strokeWidth=2" vertex="1" parent="1">
          <mxGeometry x="33" y="328" width="62" height="54" as="geometry" />
        </mxCell>
        <mxCell id="6" value="Product Page" style="rounded=1;arcSize=20;strokeWidth=2" vertex="1" parent="1">
          <mxGeometry x="712" y="328" width="123" height="54" as="geometry" />
        </mxCell>
        <mxCell id="7" value="Product Search" style="rounded=1;arcSize=20;strokeWidth=2" vertex="1" parent="1">
          <mxGeometry x="354" y="291" width="137" height="54" as="geometry" />
        </mxCell>
        <mxCell id="8" value="Shopping Cart" style="rounded=1;arcSize=20;strokeWidth=2" vertex="1" parent="1">
          <mxGeometry x="976" y="328" width="130" height="54" as="geometry" />
        </mxCell>
        <mxCell id="9" value="Payment" style="rounded=1;arcSize=20;strokeWidth=2" vertex="1" parent="1">
          <mxGeometry x="1293" y="365" width="92" height="54" as="geometry" />
        </mxCell>
        <mxCell id="10" value="Order Confirmation" style="rounded=1;arcSize=20;strokeWidth=2" vertex="1" parent="1">
          <mxGeometry x="2054" y="365" width="169" height="54" as="geometry" />
        </mxCell>
        <mxCell id="11" value="Inventory Management" style="rounded=1;arcSize=20;strokeWidth=2" vertex="1" parent="1">
          <mxGeometry x="1670" y="43" width="193" height="54" as="geometry" />
        </mxCell>
        <mxCell id="12" value="Order Fulfillment" style="rounded=1;arcSize=20;strokeWidth=2" vertex="1" parent="1">
          <mxGeometry x="1689" y="147" width="155" height="54" as="geometry" />
        </mxCell>
        <mxCell id="13" value="searches for products" style="curved=1;startArrow=none;endArrow=block;exitX=1;exitY=0.12;entryX=0;entryY=0.5;" edge="1" parent="1" source="5" target="7">
          <mxGeometry relative="1" as="geometry">
            <Array as="points">
              <mxPoint x="120" y="318" />
            </Array>
          </mxGeometry>
        </mxCell>
        <mxCell id="14" value="selects product" style="curved=1;startArrow=none;endArrow=block;exitX=1;exitY=0.87;entryX=0;entryY=0.74;" edge="1" parent="1" source="5" target="6">
          <mxGeometry relative="1" as="geometry">
            <Array as="points">
              <mxPoint x="120" y="392" />
              <mxPoint x="601" y="392" />
            </Array>
          </mxGeometry>
        </mxCell>
        <mxCell id="15" value="adds to cart" style="curved=1;startArrow=none;endArrow=block;exitX=1;exitY=0.5;entryX=0;entryY=0.5;" edge="1" parent="1" source="6" target="8">
          <mxGeometry relative="1" as="geometry">
            <Array as="points" />
          </mxGeometry>
        </mxCell>
        <mxCell id="16" value="makes payment" style="curved=1;startArrow=none;endArrow=block;exitX=0.99;exitY=0.79;entryX=0;entryY=0.49;" edge="1" parent="1" source="8" target="9">
          <mxGeometry relative="1" as="geometry">
            <Array as="points">
              <mxPoint x="1189" y="392" />
            </Array>
          </mxGeometry>
        </mxCell>
        <mxCell id="17" value="confirms order" style="curved=1;startArrow=none;endArrow=block;exitX=1;exitY=0.56;entryX=0;entryY=0.64;" edge="1" parent="1" source="9" target="10">
          <mxGeometry relative="1" as="geometry">
            <Array as="points">
              <mxPoint x="1525" y="407" />
              <mxPoint x="1971" y="407" />
            </Array>
          </mxGeometry>
        </mxCell>
        <mxCell id="18" value="fetches product details" style="curved=1;startArrow=none;endArrow=block;exitX=1;exitY=0.5;entryX=0;entryY=0.25;" edge="1" parent="1" source="7" target="6">
          <mxGeometry relative="1" as="geometry">
            <Array as="points">
              <mxPoint x="601" y="318" />
            </Array>
          </mxGeometry>
        </mxCell>
        <mxCell id="19" value="updates inventory" style="curved=1;startArrow=none;endArrow=block;exitX=0.99;exitY=0.07;entryX=0.42;entryY=1;" edge="1" parent="1" source="8" target="11">
          <mxGeometry relative="1" as="geometry">
            <Array as="points">
              <mxPoint x="1189" y="303" />
              <mxPoint x="1645" y="303" />
            </Array>
          </mxGeometry>
        </mxCell>
        <mxCell id="20" value="sends order to fulfillment" style="curved=1;startArrow=none;endArrow=block;exitX=1;exitY=0.33;entryX=0.38;entryY=1;" edge="1" parent="1" source="9" target="12">
          <mxGeometry relative="1" as="geometry">
            <Array as="points">
              <mxPoint x="1525" y="355" />
              <mxPoint x="1645" y="355" />
            </Array>
          </mxGeometry>
        </mxCell>
        <mxCell id="21" value="processes order" style="curved=1;startArrow=none;endArrow=block;exitX=1;exitY=0.5;entryX=0;entryY=0.01;" edge="1" parent="1" source="12" target="10">
          <mxGeometry relative="1" as="geometry">
            <Array as="points">
              <mxPoint x="1888" y="174" />
              <mxPoint x="1971" y="340" />
            </Array>
          </mxGeometry>
        </mxCell>
      </root>
    </mxGraphModel>
  </diagram>
</mxfile>
